<svg xmlns="http://www.w3.org/2000/svg" viewBox="0 0 91.6 87.7" class="ionicon ionicon-fill-none ionicon-stroke-width">
  <path class="st0" d="M53.4 26.9L33 68.5h-.5l-23-41.7-4.8-4.9H35l-3.6 5 8 16.7 8.4-16.7-4.1-5h14.8zm3.8-17.5c0-5.3 4.5-9.9 9.8-9.9s9.9 4.6 9.9 9.9c0 5.3-4.6 9.8-9.9 9.8s-9.8-4.4-9.8-9.8m23.3 57h-26l3.6-5.1V35.5l-3.5-4.9 22.1-9.7v40.5l3.8 5z"/>
  <path class="st2" d="M39 25.4l4 5.1-8.3 16.6-8.1-16.6 3.7-5.1H0l4.7 4.9 23 41.7h.5l20.5-41.5 5.1-5.1zM52.5 13c0-5.3 4.5-9.9 9.8-9.9s9.9 4.6 9.9 9.9c0 5.3-4.6 9.8-9.9 9.8s-9.8-4.5-9.8-9.8m23.2 57h-26l3.6-5.1V39L50 34.1l22-9.7v40.5l3.7 5.1z"/>
  <path d="M52 30.3L31.5 71.8H31L8 30.2l-4.7-4.9h30.3l-3.7 5L38 47l8.3-16.7-4-5h14.8zm3.8-17.5c0-5.3 4.5-9.9 9.8-9.9s9.9 4.6 9.9 9.9c0 5.3-4.6 9.8-9.9 9.8s-9.8-4.4-9.8-9.8m23.2 57H53l3.6-5.1V38.9L53.3 34l22.1-9.7v40.5l3.6 5zM15.5 82.3l-1.8 4.9h-1.4l-.9-3.1-.9 3.1H9l-1.8-4.9h1.5l1 3.2 1-3.2H12l1 3.2 1-3.2h1.5zm5.1 1.9v3.1h-1.4v-2.8c0-.8-.3-1.1-.9-1.1-.7 0-1 .4-1 1.2v2.8h-1.4v-7.1h1.4V83c.3-.5.8-.7 1.5-.7 1.1-.1 1.8.6 1.8 1.9zm4.4 1.4h1.4c0 .5-.2.9-.6 1.2-.5.4-1.1.6-1.9.6-1.2 0-2.1-.5-2.4-1.3-.2-.4-.2-.8-.2-1.3s.1-.9.2-1.2c.4-.8 1.2-1.3 2.3-1.3s2 .5 2.4 1.3c.2.5.2.9.2 1.6h-3.8c0 .2.1.4.1.6.2.4.6.6 1.1.6.4 0 .7-.1.9-.3.1-.1.2-.3.3-.5zm-2.3-1.8c-.1.1-.1.3-.1.5H25c0-.2-.1-.3-.1-.5-.2-.4-.5-.6-1.1-.6-.5 0-.9.2-1.1.6zm4.3-1.5h1.4v.4c.2-.4.5-.5.8-.5.5 0 .8.3.8.8s-.3.8-.8.8c-.3 0-.6-.2-.7-.4-.1 0-.1.1-.1.4v3.3H27v-4.8zm6.9 3.3h1.4c0 .5-.2.9-.6 1.2-.5.4-1.1.6-1.9.6-1.2 0-2.1-.5-2.4-1.3-.2-.4-.2-.8-.2-1.3s.1-.9.2-1.2c.4-.8 1.2-1.3 2.3-1.3s2 .5 2.4 1.3c.2.5.2.9.2 1.6h-3.8c0 .2.1.4.1.6.2.4.6.6 1.1.6.4 0 .7-.1.9-.3.1-.1.2-.3.3-.5zm-2.3-1.8c-.1.1-.1.3-.1.5h2.4c0-.2-.1-.3-.1-.5-.2-.4-.5-.6-1.1-.6-.5 0-.9.2-1.1.6zm8.9 3.5h-3.2l.4-.6v-3l-.4-.7 2.8-1.2v4.9l.4.6zm-3-6.8c0-.7.6-1.3 1.3-1.3s1.3.6 1.3 1.3c0 .7-.6 1.3-1.3 1.3s-1.3-.6-1.3-1.3zm10.2 5.9l-2.5 1.1-.5-.8h-.1c-.4.4-1 .7-1.6.7-1.1 0-2.3-.7-2.3-2.5 0-2.1 1.8-3 3.4-3h.4v-.8l-.3-.6 2.8-1.2v6.5l.7.6zm-3.1-.2V83c0-.3-.2-.6-.5-.6-.5 0-.8.7-.8 2 0 1.4.4 2 .9 2l.4-.2zm8.9-1c-.3 1.4-1.2 2.2-2.7 2.2-2 0-3-1.3-3-2.8 0-1.6 1.2-2.7 3.1-2.7 1.7 0 2.6.9 2.6 2.3h-3.4c.1 1.1.7 1.5 1.6 1.5.5 0 1.2-.1 1.8-.5zm-3.4-1.5h1.1c0-1-.1-1.4-.5-1.4-.4.1-.6.6-.6 1.4zm9.9 2.4c-.2.8-.9 1.2-1.7 1.2-.5 0-1-.2-1.3-.7-.3.4-.8.7-1.5.7-.9 0-1.5-.5-1.5-1.3 0-.7.4-1.1.8-1.4h2.1v-.3c0-.8-.4-1-1-1-.4 0-.9.1-1.6.5h-.1c.4-.9 1.2-1.9 2.9-1.9 1.4 0 2.2.7 2.2 1.8v2.1c0 .3.1.4.3.4.1 0 .2 0 .4-.1zm-3.2.1v-1.1h-.6c-.2.2-.3.5-.3.7 0 .3.2.6.5.6.2 0 .3-.1.4-.2zm8.2-.7c0 1-.8 1.8-2.6 1.8-.7 0-1.2-.1-1.6-.2l-.7.4v-2.4l1.3 1.6h.4c.6 0 .8-.2.8-.5 0-.8-2.5-.9-2.5-2.6 0-1.1 1-1.8 2.6-1.8.5 0 .9.1 1.3.2l.7-.3v2.1l-1.3-1.4h-.2c-.5 0-.8.2-.8.5 0 .8 2.6.9 2.6 2.6zm2.2 1c-.1-.2-.1-.5-.1-.8h1.4c0 .2 0 .3.1.4.1.3.4.4.8.4s.6-.1.7-.3v-.4c-.1-.3-.5-.4-1.1-.5-.6-.1-1.2-.4-1.5-.9-.1-.2-.1-.3-.1-.6 0-.2 0-.4.1-.6.3-.6 1-.9 1.9-.9.9 0 1.6.3 1.9.9.1.2.1.4.1.7H70c0-.1 0-.3-.1-.4-.1-.2-.3-.3-.7-.3-.3 0-.5.1-.6.3v.4c.1.3.6.4 1.2.5.7.2 1.3.4 1.6 1 .1.2.1.3.1.6s0 .5-.1.7c-.3.7-1.1 1-2.1 1-1-.3-1.8-.6-2.1-1.2zm10.1-1.7c0 .5-.1 1-.3 1.4-.3.8-1 1.2-2 1.2-.7 0-1.2-.2-1.6-.7v2.6H72v-7h1.3v.6c.4-.5.9-.7 1.6-.7.9 0 1.6.5 2 1.2.3.4.4.9.4 1.4zm-1.5 0c0-.4 0-.6-.1-.9-.2-.4-.5-.6-1-.6-.7 0-1.1.5-1.1 1.3v.3c0 .9.4 1.3 1.1 1.3.5 0 .9-.2 1-.6.1-.2.1-.4.1-.8zm6.7-.4v2.9h-1.4v-.6c-.3.4-.9.7-1.7.7-.8 0-1.4-.3-1.7-.8-.1-.2-.1-.4-.1-.7 0-.3 0-.5.1-.7.4-.8 1.3-1 2.5-1h.9v-.1c0-.3 0-.4-.1-.6-.1-.3-.4-.4-.9-.4-.4 0-.7.1-.9.4-.1.1-.1.2-.1.3h-1.4c0-.3 0-.5.1-.7.3-.7 1.1-1 2.2-1s1.8.3 2.1 1c.4.4.4.8.4 1.3zM81 85.8c.1-.2.1-.3.1-.6v-.1h-.8c-.6 0-1 .1-1.2.4v.5c.1.3.4.4.8.4.6 0 1-.2 1.1-.6zm2.3-3.5h1.4v.4c.2-.4.5-.5.8-.5.5 0 .8.3.8.8s-.3.8-.8.8c-.3 0-.6-.2-.7-.4-.1 0-.1.1-.1.4v3.3h-1.4v-4.8zm6.7 5l-1.8-2.2v2.2h-1.4v-7.1h1.4V84l1.6-1.7h1.7l-2.1 2.2 2.3 2.7H90z"/>
</svg>
