<svg xmlns="http://www.w3.org/2000/svg" viewBox="0 0 65.6 48.9" class="ionicon ionicon-fill-none ionicon-stroke-width">
  <path d="M60.6 0H5C2.3 0 0 2.3 0 5v38.9c0 2.8 2.2 5 5 5h55.6c2.8 0 5-2.2 5-5V5c0-2.7-2.2-5-5-5m0 2.5c1.4 0 2.5 1.1 2.5 2.5v38.9c0 1.4-1.1 2.5-2.5 2.5H5c-1.4 0-2.5-1.1-2.5-2.5V5c0-1.4 1.1-2.5 2.5-2.5h55.6zM1.5 14.3h62.6"/>
  <path d="M26.4 21.9l15.4 9-15.4 8.9z"/>
  <path class="st3" d="M10.3 8c0 .4-.3.8-.8.8-.4 0-.7-.4-.7-.8s.4-.8.8-.8.7.3.7.8"/>
  <path class="st4" d="M10.3 8c0 .4-.3.8-.8.8-.4 0-.7-.4-.7-.8s.4-.8.8-.8.7.3.7.8z"/>
  <path class="st3" d="M17.6 8c0 .4-.3.8-.8.8-.4 0-.8-.3-.8-.8 0-.4.4-.8.8-.8.5 0 .8.3.8.8"/>
  <path class="st4" d="M17.6 8c0 .4-.3.8-.8.8-.4 0-.8-.3-.8-.8 0-.4.4-.8.8-.8.5 0 .8.3.8.8z"/>
</svg>
