<svg xmlns="http://www.w3.org/2000/svg" xmlns:xlink="http://www.w3.org/1999/xlink" viewBox="0 0 54.2 54.2" class="ionicon usePageByAliasionicon-fill-none ionicon-stroke-width ionicon-fill-none">
  <defs>
    <path id="a" d="M0 0h54.2v54.2H0z"/>
  </defs>
  <clipPath id="b">
    <use xlink:href="#a" overflow="visible"/>
  </clipPath>
  <path d="M40.9 2v19H13.3V1.2h27.9l11.7 11.5v37.2c0 1.6-1.4 3-3 3H4.3c-1.7 0-3-1.4-3-3V4.2c0-1.7 1.3-3 3-3h4.4" clip-path="url(#b)" fill="none"/>
  <path d="M15.5 44.8h23.1m-23.1-6.9h23.1M8.6 53V33.1c0-1.7 1.4-3.2 3.2-3.2h30.8c1.7 0 3.2 1.4 3.2 3.2V53M32.5 5.6v10.9" clip-path="url(#b)" fill="none"/>
</svg>
