<svg xmlns="http://www.w3.org/2000/svg" xmlns:xlink="http://www.w3.org/1999/xlink" viewBox="0 0 52.4 52.4" class="ionicon usePageByAliasionicon-fill-none ionicon-stroke-width ionicon-fill-none">
  <defs>
    <path id="a" d="M0 0h52.4v52.4H0z"/>
  </defs>
  <clipPath id="b">
    <use xlink:href="#a" overflow="visible"/>
  </clipPath>
  <path d="M50.3 20.1l-6.8 12.5-2.7 3.7L38.7 26l-2.6-.1s-6.9-2.5-1-7.5l7.2-.8 2.8-5.6-10 .5-1.7-1.6 3.1-7.3c8.6 3.9 14.6 12.6 14.6 22.7 0 13.8-11.2 25-25 25s-25-11.2-25-25c0-1.8.2-3.6.6-5.3M16.9 3.2l.3 10.1-7.1 4.7.6 4.5 5.5-.4 8.5 4.4-8.1 14.9-2.9-10.1-4.1-2.4 1.1-5.9-7.2-7.2c4-8.6 12.6-14.5 22.7-14.5 1.9 0 3.7.2 5.5.6" clip-path="url(#b)" fill="none"/>
</svg>
