<?xml version="1.0" standalone="no"?>
<!DOCTYPE svg PUBLIC "-//W3C//DTD SVG 20010904//EN"
 "http://www.w3.org/TR/2001/REC-SVG-20010904/DTD/svg10.dtd">
<svg version="1.0" xmlns="http://www.w3.org/2000/svg"
 width="736.000000pt" height="736.000000pt" viewBox="0 0 736.000000 736.000000"
 preserveAspectRatio="xMidYMid meet">
<metadata>
Created by potrace 1.11, written by Peter Selinger 2001-2013
</metadata>
<g transform="translate(0.000000,736.000000) scale(0.100000,-0.100000)"
fill="#000000" stroke="none">
<path d="M5120 7193 c-36 -13 -119 -57 -166 -88 -52 -35 -159 -134 -185 -171
-7 -12 -50 -39 -94 -62 -197 -98 -337 -256 -412 -462 -13 -36 -26 -78 -28 -95
-3 -16 -7 -41 -10 -55 -14 -68 -3 -232 21 -304 65 -202 172 -347 341 -459 l81
-54 -574 1 c-440 1 -574 -2 -574 -11 0 -7 6 -16 13 -20 7 -4 20 -17 28 -29 8
-11 30 -41 51 -65 20 -24 55 -66 77 -94 l41 -50 -187 -5 c-104 -3 -194 -9
-200 -13 -7 -5 -13 -4 -13 1 0 9 -65 7 -82 -4 -6 -4 -9 -3 -5 2 3 5 -9 8 -26
7 -18 -1 -40 -2 -49 -2 -10 -1 -18 -6 -18 -12 0 -9 54 -85 71 -99 3 -3 46 -57
95 -120 48 -63 99 -126 111 -140 13 -14 23 -30 23 -36 0 -7 -89 -190 -198
-409 -150 -300 -201 -393 -209 -383 -6 7 -21 35 -33 62 -12 27 -62 133 -112
235 -50 102 -107 222 -128 266 -21 44 -74 156 -119 249 -45 93 -84 179 -87
190 -3 13 2 29 13 41 11 11 34 43 53 70 19 28 43 59 53 70 18 20 18 20 -22 23
-37 3 -54 15 -33 24 12 5 182 248 174 249 -40 5 -2405 2 -2408 -3 -3 -4 51
-65 120 -135 69 -70 124 -128 123 -129 -1 -1 -141 -4 -310 -7 -170 -3 -311 -8
-314 -10 -2 -3 43 -54 100 -114 58 -59 140 -145 184 -191 74 -76 129 -160 206
-312 10 -19 26 -48 36 -65 9 -16 34 -59 53 -95 20 -36 71 -128 113 -205 43
-77 91 -165 108 -195 16 -30 40 -74 53 -97 13 -24 35 -62 48 -85 29 -53 76
-140 106 -193 12 -22 31 -58 44 -80 12 -22 42 -76 66 -120 24 -44 52 -96 63
-115 11 -19 43 -78 72 -130 29 -52 82 -148 119 -214 36 -65 66 -120 66 -122 0
-2 13 -25 28 -51 16 -26 48 -84 72 -128 24 -44 51 -94 61 -112 10 -18 35 -63
55 -100 49 -90 113 -204 125 -223 5 -8 12 -22 16 -30 3 -8 23 -44 43 -80 20
-36 51 -90 67 -120 17 -30 41 -75 55 -100 14 -25 56 -101 93 -170 38 -69 79
-143 92 -165 13 -22 33 -59 45 -82 37 -72 55 -61 118 68 36 73 58 106 63 97 4
-7 23 -40 43 -73 20 -33 35 -62 35 -65 -1 -16 43 -57 57 -53 15 4 182 326 182
351 0 6 3 12 8 14 4 2 30 50 58 108 99 202 156 315 166 328 6 6 8 12 5 12 -2
0 65 140 149 310 85 171 154 315 154 320 0 6 4 10 10 10 5 0 9 3 8 8 -1 4 88
189 199 412 110 223 282 571 382 773 181 365 183 368 200 345 10 -13 69 -98
131 -191 l114 -167 -1 -1040 0 -1040 -41 -57 c-112 -157 -242 -343 -242 -346
0 -3 468 -5 1040 -5 572 0 1038 4 1035 8 -2 4 51 6 118 6 124 -2 166 2 150 13
-5 3 -20 22 -33 41 -14 19 -28 40 -32 45 -33 41 -118 161 -118 167 0 3 66 7
147 7 81 1 149 3 151 6 3 3 -88 129 -130 180 -5 6 -36 46 -69 90 -33 44 -68
90 -78 103 -17 21 -18 105 -17 1638 1 889 -1 1620 -4 1624 -5 8 -57 -12 -180
-67 -25 -12 -243 -107 -485 -213 -242 -106 -462 -203 -490 -215 -27 -13 -84
-37 -125 -55 -41 -18 -103 -45 -138 -61 -35 -16 -65 -29 -67 -29 -2 0 -32 -13
-67 -29 -35 -16 -97 -43 -138 -61 -41 -18 -77 -34 -79 -36 -2 -2 11 -22 28
-45 17 -24 30 -44 28 -45 -7 -7 -232 -104 -241 -104 -5 0 -17 -7 -26 -15 -9
-8 -25 -16 -36 -18 -10 -2 -29 -8 -41 -15 -12 -7 -33 -16 -47 -22 -28 -10 -28
-12 5 50 14 26 62 125 64 130 0 3 13 28 27 56 26 49 61 87 308 329 l123 120
-80 3 -79 3 125 122 c69 67 129 128 134 135 4 7 14 9 20 5 7 -4 14 -8 17 -8 3
-1 28 -8 55 -18 99 -33 168 -36 453 -24 129 6 167 11 220 26 17 5 32 8 32 5 0
-2 13 2 30 11 16 8 32 15 35 15 12 -2 100 42 141 70 25 16 47 30 50 30 6 0 13
6 94 85 34 33 76 83 94 110 32 48 86 143 85 148 0 1 4 15 10 30 6 16 11 34 11
41 0 7 3 16 7 20 4 3 8 15 10 25 1 10 23 58 48 108 25 50 45 97 45 105 0 8 5
19 12 26 7 7 9 12 6 12 -3 0 0 26 7 58 11 57 12 233 1 281 -28 118 -61 195
-129 296 -46 68 -169 193 -213 215 -16 8 -31 18 -34 22 -3 3 -39 23 -80 42
l-74 36 -251 -1 c-137 0 -257 -3 -265 -6z"/>
<path d="M3090 836 c-69 -24 -95 -103 -54 -160 67 -91 210 -15 178 95 -6 21
-22 38 -49 54 -36 20 -44 21 -75 11z"/>
<path d="M3750 823 c-17 -6 -67 -28 -147 -63 -51 -23 -52 -24 -39 -49 7 -14
12 -39 12 -56 -1 -26 -4 -29 -36 -30 -165 -6 -268 -98 -268 -239 1 -60 10 -93
38 -133 46 -63 160 -81 239 -37 24 13 45 23 46 22 1 -2 7 -13 14 -25 7 -15 19
-21 38 -19 36 2 103 27 103 39 0 4 3 6 8 4 4 -3 22 3 41 12 l33 18 -28 22 -28
22 0 259 c0 143 -3 260 -6 259 -3 0 -12 -3 -20 -6z m-174 -261 c3 -9 7 -76 8
-149 1 -126 0 -133 -20 -142 -31 -14 -59 9 -73 61 -14 51 -10 184 7 215 23 42
63 50 78 15z"/>
<path d="M6989 762 c-12 -2 -15 -48 -15 -285 l0 -282 57 -1 56 0 -1 83 c0 46
1 83 4 83 3 0 14 -12 24 -26 11 -14 30 -37 44 -52 13 -15 35 -42 49 -59 14
-18 29 -31 33 -28 5 3 33 6 64 6 31 1 56 3 56 6 0 4 -161 195 -171 203 -4 3
28 42 72 88 43 45 79 86 79 91 0 10 -132 4 -139 -7 -10 -15 -66 -76 -92 -99
l-24 -22 1 150 c1 82 -1 149 -5 150 -25 3 -80 4 -92 1z"/>
<path d="M1282 750 c-9 -7 -8 -533 1 -548 8 -12 94 -14 102 -3 2 4 5 63 6 132
0 68 5 132 10 141 13 24 73 42 98 28 36 -18 43 -48 44 -179 l1 -128 55 1 56 1
0 144 c0 112 -4 153 -16 181 -22 49 -61 73 -120 73 -50 0 -109 -19 -109 -34 0
-5 -4 -9 -10 -9 -5 0 -11 45 -12 102 l-3 103 -48 0 c-27 0 -52 -2 -55 -5z"/>
<path d="M4995 632 c-93 -9 -164 -68 -165 -138 0 -62 36 -104 132 -153 64 -33
85 -71 49 -91 -36 -19 -75 -12 -98 18 -12 15 -35 43 -52 62 l-30 35 -1 -89 c0
-87 0 -88 23 -81 31 9 87 12 87 4 0 -4 38 -5 84 -4 138 5 196 50 196 150 0 47
-43 93 -124 134 -37 18 -71 41 -76 51 -12 23 7 48 41 54 22 3 37 -6 82 -51
l55 -55 0 73 c0 86 -3 93 -29 79 -12 -7 -42 -8 -82 -3 -34 4 -75 7 -92 5z"/>
<path d="M3107 586 c-54 -24 -100 -46 -103 -49 -3 -3 1 -16 10 -29 22 -31 23
-245 2 -287 l-15 -28 125 1 c68 0 124 3 124 7 0 4 -6 12 -14 18 -10 9 -14 53
-14 199 -1 224 0 212 -9 211 -5 0 -52 -20 -106 -43z"/>
<path d="M4000 613 c-58 -17 -118 -66 -141 -117 -23 -53 -19 -153 10 -199 25
-41 76 -87 95 -87 8 0 17 -4 21 -10 7 -12 173 -6 205 7 35 15 75 61 94 106 17
42 16 42 -38 23 -22 -8 -66 -12 -99 -11 -68 4 -100 27 -116 83 l-10 32 47 1
c26 1 89 1 139 1 l93 -1 -6 37 c-17 114 -152 176 -294 135z m104 -45 c6 -26 9
-58 7 -74 -1 -14 -41 -26 -41 -12 0 5 -5 6 -10 3 -6 -4 -17 -4 -25 -2 -10 5
-11 15 -4 49 6 23 15 46 22 50 23 15 47 8 51 -14z"/>
<path d="M4515 615 c-55 -16 -106 -51 -132 -92 -30 -45 -29 -57 2 -37 14 9 53
19 88 21 71 6 83 -2 97 -62 l8 -35 -87 0 c-75 0 -90 -3 -110 -21 -76 -71 -41
-186 59 -193 48 -4 95 8 121 31 15 12 21 11 53 -11 25 -17 47 -23 69 -21 17 2
40 4 51 4 19 1 86 62 86 79 0 5 -11 7 -25 4 -17 -3 -25 0 -26 9 -1 8 -2 61 -4
119 -1 58 -7 117 -13 132 -26 64 -145 101 -237 73z m50 -293 c1 -28 -4 -46
-13 -51 -17 -10 -51 -3 -53 10 -9 62 5 91 41 87 21 -3 24 -8 25 -46z"/>
<path d="M6335 596 c-42 -15 -68 -37 -81 -66 -19 -47 -13 -55 41 -56 42 -1 53
3 71 24 16 20 32 26 69 28 55 3 74 -10 79 -54 3 -30 3 -30 -53 -31 -103 -1
-142 -10 -182 -42 -22 -17 -39 -36 -40 -42 0 -7 -2 -26 -3 -44 -3 -46 18 -89
51 -106 44 -22 151 -20 191 3 41 24 44 25 40 2 -3 -14 5 -17 52 -17 l55 0 0
151 0 151 -38 46 c-26 32 -49 49 -75 56 -48 13 -139 11 -177 -3z m181 -249
c-3 -12 -5 -28 -5 -35 -2 -23 -61 -51 -100 -46 -42 5 -61 26 -53 57 9 34 31
44 99 45 59 0 62 -1 59 -21z"/>
<path d="M580 593 c0 -1 14 -40 31 -85 17 -46 32 -87 33 -93 2 -5 8 -21 13
-35 6 -14 20 -54 33 -90 12 -36 27 -71 32 -77 6 -8 34 -13 67 -13 l57 0 17 62
c10 35 20 72 22 83 12 50 34 99 38 85 7 -22 37 -133 42 -152 2 -9 9 -27 16
-40 7 -13 10 -25 8 -28 -2 -3 21 -6 52 -8 l56 -3 16 38 c30 68 119 318 121
337 1 16 -6 19 -47 21 -26 0 -51 -2 -56 -5 -5 -3 -19 -39 -31 -80 -13 -41 -27
-81 -33 -87 -5 -7 -7 -13 -4 -13 3 0 1 -14 -5 -31 -6 -17 -14 -27 -18 -22 -5
6 -23 59 -35 103 -1 3 -7 25 -14 50 -7 25 -12 45 -10 45 1 0 -3 9 -9 21 -9 18
-19 20 -58 18 -26 -2 -51 -7 -54 -11 -9 -9 -70 -205 -70 -221 0 -28 -18 -9
-29 31 -34 117 -55 183 -61 190 -6 7 -120 17 -120 10z"/>
<path d="M1879 589 c-115 -17 -169 -86 -166 -209 2 -83 28 -134 83 -165 34
-19 54 -22 130 -21 82 1 95 4 131 29 39 27 63 62 63 93 0 13 -10 15 -50 12
-29 -2 -50 1 -50 7 -1 6 -7 -2 -16 -17 -18 -34 -49 -51 -93 -53 -43 -1 -91 36
-91 71 0 27 -3 26 203 25 111 -1 108 -4 92 89 -8 46 -20 65 -60 95 -45 35
-118 53 -176 44z m89 -77 c7 -2 19 -17 27 -33 20 -38 9 -44 -96 -45 -83 -1
-86 0 -81 20 10 40 51 68 96 65 22 -2 47 -5 54 -7z"/>
<path d="M2175 592 c-3 -3 -5 -90 -5 -194 l0 -188 55 0 c37 0 55 4 56 13 1 6
1 72 1 145 0 72 3 132 7 132 4 0 12 -5 17 -10 6 -6 23 -13 37 -16 54 -9 91 72
50 108 -25 20 -78 22 -93 3 -9 -11 -15 -13 -20 -5 -7 11 -96 21 -105 12z"/>
<path d="M2601 589 c-119 -16 -172 -76 -172 -197 -1 -148 57 -202 211 -198
101 3 127 13 168 61 44 54 37 69 -31 73 -47 3 -56 0 -61 -16 -12 -35 -79 -57
-128 -40 -32 11 -43 24 -52 60 -7 31 -24 28 186 30 l117 1 -5 56 c-7 66 -18
90 -59 123 -46 38 -111 55 -174 47z m95 -94 c14 -14 24 -33 22 -43 -3 -15 -17
-17 -95 -18 -80 -1 -92 1 -89 15 6 32 18 51 32 51 8 0 14 5 14 10 0 6 20 10
45 10 36 0 52 -6 71 -25z"/>
<path d="M5516 585 c-72 -18 -106 -60 -100 -124 4 -55 50 -93 127 -106 55 -10
82 -28 85 -57 4 -30 -17 -44 -61 -42 -31 1 -43 11 -61 45 -9 18 -19 22 -61 22
-58 0 -68 -17 -41 -68 29 -53 57 -63 187 -63 l117 0 19 37 c11 20 19 46 17 59
-1 12 -2 31 -3 42 -2 41 -81 88 -174 104 -39 7 -57 24 -53 50 3 11 5 24 5 29
1 4 17 7 36 7 33 0 75 -27 75 -48 0 -6 70 -9 102 -3 3 0 5 12 3 26 -3 28 -28
60 -60 78 -33 18 -111 24 -159 12z"/>
<path d="M5803 590 c-17 -5 -18 -18 -17 -190 1 -102 2 -191 3 -198 2 -20 106
-12 106 8 1 17 23 15 45 -4 9 -9 44 -13 94 -13 77 0 80 1 115 36 102 102 72
295 -53 352 -59 27 -125 25 -170 -6 l-36 -24 0 22 c0 19 -5 23 -34 22 -19 0
-43 -2 -53 -5z m276 -113 c1 -7 5 -41 7 -77 6 -78 -11 -110 -64 -116 -73 -8
-112 35 -107 122 3 62 19 89 59 101 34 10 101 -10 105 -30z"/>
<path d="M6714 592 c-21 -3 -21 -7 -21 -193 l0 -189 57 0 56 0 -1 138 c-1 75
0 142 3 149 2 7 10 5 23 -8 31 -31 94 -11 99 31 9 69 -50 105 -108 64 -14 -10
-21 -11 -20 -4 3 12 -45 19 -88 12z"/>
</g>
</svg>
