<svg xmlns="http://www.w3.org/2000/svg" viewBox="0 0 44.1 60.1" class="ionicon ionicon-fill-none ionicon-stroke-width">
  <path class="st0" d="M36.4 9.4H40c1.6 0 2.9 1.3 2.9 2.9V56c0 1.6-1.3 2.9-2.9 2.9H4.2c-1.6 0-2.9-1.3-2.9-2.9V12.3c0-1.6 1.3-2.9 2.9-2.9h3.6"/>
  <path class="st0" d="M31.7 6h-4.9c-.1-2.6-2.2-4.7-4.8-4.7-2.6 0-4.8 2.1-4.8 4.7h-4.8v7.4h19.4V6z"/>
  <path class="st1" d="M9.5 24h.8v.8h-.8zm6.2.4h19.7M9.5 31.8h.8v.8h-.8zm6.2.4h19.7M9.5 39.6h.8v.8h-.8zm6.2.4h19.7M9.5 47.4h.8v.8h-.8zm6.2.5h19.7"/>
</svg>
