<svg xmlns="http://www.w3.org/2000/svg" viewBox="0 0 62.1 62.7" class="ionicon ionicon-fill-none ionicon-stroke-width">
  <path d="M22.8 62.7v-4.9c0-2.3-1.9-4.3-4.3-4.2h-13c-2.3 0-4.3 1.9-4.2 4.3v4.9m15.9-21.3c0 3-2.4 5.4-5.4 5.4-3 0-5.4-2.4-5.4-5.4 0-3 2.4-5.4 5.4-5.4 3 0 5.4 2.4 5.4 5.4zm43.6 21.2v-4.9c0-2.3-1.9-4.3-4.3-4.2h-13c-2.3 0-4.3 1.9-4.2 4.3v4.9m16-21.3c0 3-2.4 5.4-5.4 5.4s-5.4-2.4-5.4-5.4c0-3 2.4-5.4 5.4-5.4s5.4 2.4 5.4 5.4zM41.8 27.8v-4.9c0-2.3-1.9-4.3-4.3-4.2h-13c-2.3 0-4.3 1.9-4.2 4.3v4.9m16-21.2c0 3-2.4 5.4-5.4 5.4-3 0-5.4-2.4-5.4-5.4 0-3 2.4-5.4 5.4-5.4 2.9-.1 5.4 2.4 5.4 5.4zm.9 34.6L31 36.8m-6.2 4.5l6.2-4.4m.1-7.7v7.6"/>
</svg>
