<svg xmlns="http://www.w3.org/2000/svg" xmlns:xlink="http://www.w3.org/1999/xlink" viewBox="0 0 91.6 87.7">
  <defs/>
  <defs>
    <path id="a" d="M0-.4h91.6v87.7H0V-.4z"/>
  </defs>
  <defs>
    <use id="b" xlink:href="#a"/>
  </defs>
  <clipPath id="c">
    <use x="13.1242" y="-5.9824" xlink:href="#b"/>
  </clipPath>
  <g stroke="null">
    <g clip-path="url(#c)">
      <path fill="#f7b49b" d="M54.043 25.3505c0-4.0264 3.4188-7.5212 7.4454-7.5212s7.5212 3.4947 7.5212 7.5213c0 4.0265-3.4948 7.4453-7.5213 7.4453s-7.4453-3.4188-7.4453-7.4453M71.6686 68.655H51.9157l2.735-3.8745V45.1034l-2.507-3.7225 16.714-7.3694v30.7688l2.811 3.8747v-.0002z"/>
    </g>
    <path d="M54.4228 38.4939L38.8485 70.0225h-.3799L20.995 38.4178l-3.5707-3.7227H40.444l-2.811 3.7986 6.1539 12.6875 6.3056-12.6875-3.0388-3.7986h11.244l-3.8748 3.7986z"/>
    <defs transform="translate(4.8242 6.6476)">
      <use id="d" stroke="null" xlink:href="#a"/>
    </defs>
    <path d="M56.5502 25.1987c0-4.0265 3.4187-7.5212 7.4453-7.5212s7.5212 3.4947 7.5212 7.5212c0 4.0266-3.4948 7.4453-7.5213 7.4453s-7.4452-3.3427-7.4452-7.4453M74.1757 68.503h-19.753l2.735-3.8747v-19.601l-2.507-3.7225 16.79-7.3694v30.769l2.735 3.7985z"/>
  </g>
</svg>